<!-- icon666.com - MILLIONS vector ICONS FREE -->
<svg version="1.1" id="Capa_1" xmlns="http://www.w3.org/2000/svg" x="0px"
     y="0px" viewBox="0 0 512 512" style="enable-background:new 0 0 512 512;"
     xml:space="preserve">
    <defs>
        <!-- Define gradient -->
        <linearGradient id="gradient" x1="100%" y1="100%" x2="100%" y2="0">
            <stop offset="0%" stop-color="white" stop-opacity="0.1"/>
            <stop offset="100%" stop-color="white" stop-opacity="1"/>
        </linearGradient>

        <!-- Define mask -->
        <mask id="mask" x="0" y="0" width="512" height="512">
            <rect x="0" y="0" width="512" height="512" fill="url(#gradient)"/>
        </mask>
    </defs>
    <g ><g><path mask="url(#mask)" fill="white" d="M355.811,60.418h-36.68c-1.094-16.623-14.959-29.816-31.855-29.816h-22.93C255.907,12.264,237.265,0,216.663,0 c-20.602,0-39.244,12.264-47.683,30.602h-22.931c-16.896,0-30.76,13.193-31.853,29.816h-36.68 c-25.827,0-46.839,21.014-46.839,46.842v357.9c0,25.826,21.012,46.84,46.839,46.84h278.295c25.828,0,46.842-21.014,46.842-46.84 v-357.9C402.653,81.432,381.639,60.418,355.811,60.418z M134.12,62.533c0-6.578,5.352-11.932,11.93-11.932h29.846 c4.451,0,8.365-2.939,9.605-7.215C189.494,29.617,202.309,20,216.663,20c14.355,0,27.17,9.617,31.163,23.387 c1.239,4.275,5.154,7.215,9.604,7.215h29.846c6.58,0,11.934,5.354,11.934,11.932v14.91c0,6.578-5.354,11.93-11.934,11.93H146.05 c-6.578,0-11.93-5.352-11.93-11.93V62.533z M382.653,465.16c0,14.799-12.041,26.84-26.842,26.84H77.518 c-14.799,0-26.839-12.041-26.839-26.84v-357.9c0-14.801,12.04-26.842,26.839-26.842h36.745 c1.506,16.217,15.184,28.955,31.787,28.955h141.226c16.605,0,30.283-12.738,31.789-28.955h36.746 c14.801,0,26.842,12.041,26.842,26.842V465.16z"/></g></g>
    <g><g><path mask="url(#mask)" fill="white" d="M216.663,44.687c-5.523,0-10,4.477-10,10v0.229c0,5.522,4.477,10,10,10c5.523,0,10-4.479,10-10v-0.229 C226.663,49.164,222.186,44.687,216.663,44.687z"/></g></g>
    <g><g><path mask="url(#mask)" fill="white" d="M288.592,190.305h-2.613c-5.523,0-10,4.479-10,10c0,5.523,4.477,10,10,10h2.613c5.523,0,10-4.477,10-10 C298.592,194.784,294.115,190.305,288.592,190.305z"/></g></g>
    <g><g><path mask="url(#mask)" fill="white" d="M255.057,190.305H144.734c-5.523,0-10,4.479-10,10c0,5.523,4.476,10,10,10h110.323c5.522,0,10-4.477,10-10 C265.057,194.784,260.578,190.305,255.057,190.305z"/></g></g>
    <g><g><path mask="url(#mask)" fill="white" d="M288.593,242.938H144.734c-5.523,0-10,4.479-10,10c0,5.523,4.476,10,10,10h143.859c5.523,0,10-4.477,10-10 C298.593,247.417,294.116,242.938,288.593,242.938z"/></g></g>
    <g><g><path mask="url(#mask)" fill="white" d="M288.593,295.568H144.734c-5.523,0-10,4.477-10,10c0,5.522,4.476,10,10,10h143.859c5.523,0,10-4.478,10-10 C298.593,300.045,294.116,295.568,288.593,295.568z"/></g></g>
    <g><g><path mask="url(#mask)" fill="white" d="M288.593,371.121h-55.161c-5.523,0-10,4.479-10,10c0,5.523,4.477,10,10,10h55.161c5.523,0,10-4.477,10-10 C298.593,375.6,294.116,371.121,288.593,371.121z"/></g></g>
    <g><g><path mask="url(#mask)" fill="white" d="M355.809,124.805H77.518c-7.254,0-13.155,5.9-13.155,13.154v327.197c0,7.254,5.901,13.156,13.155,13.156H355.81 c7.254,0,13.156-5.902,13.156-13.156V137.959C368.966,130.705,363.063,124.805,355.809,124.805z M348.966,458.313H84.363V144.805 h264.603V458.313z"/></g></g>
    <g><g><path mask="url(#mask)" fill="white" d="M206.126,341.294c-4.527-3.164-10.761-2.059-13.925,2.469l-29.691,42.478l-19.722-24.65 c-3.449-4.313-9.742-5.014-14.055-1.563c-4.313,3.451-5.012,9.744-1.563,14.057l28.071,35.087c1.9,2.377,4.776,3.754,7.809,3.754 c0.107,0,0.215-0.002,0.324-0.006c3.149-0.102,6.066-1.684,7.872-4.266l37.348-53.434 C211.758,350.693,210.654,344.458,206.126,341.294z"/></g></g>
    <g><g><path mask="url(#mask)" fill="white" d="M457.302,103.277h-11.426c-13.246,0-24.023,10.777-24.023,24.023v302.158c0,1.365,0.281,2.717,0.822,3.971l19.734,45.633 c1.584,3.66,5.191,6.031,9.18,6.031c3.988,0,7.594-2.371,9.178-6.031l19.734-45.635c0.543-1.252,0.822-2.603,0.822-3.969V127.301 C481.323,114.055,470.546,103.277,457.302,103.277z M441.852,127.3c0-2.181,1.842-4.023,4.024-4.023h11.426 c2.18,0,4.021,1.842,4.021,4.023v27.068h-19.471V127.3z M441.852,174.369h19.471v221.76h-19.471V174.369z M461.324,427.39 l-9.735,22.51l-9.736-22.51v-11.262h19.471V427.39z"/></g></g>
</svg>