<!-- icon666.com - MILLIONS vector ICONS FREE -->
<svg version="1.1" id="Layer_1" xmlns="http://www.w3.org/2000/svg"
     x="0px" y="0px" viewBox="0 0 512 512"
     style="enable-background:new 0 0 512 512;" xml:space="preserve"><g><g><g><path d="M218.391,87.729c-72.046,0-130.662,58.614-130.662,130.662c0,72.051,58.616,130.66,130.662,130.66 c72.044,0,130.66-58.609,130.66-130.66C349.051,146.342,290.437,87.729,218.391,87.729z M218.391,331.63 c-62.441,0-113.239-50.798-113.239-113.239c0-62.438,50.796-113.239,113.239-113.239c62.441,0,113.239,50.801,113.239,113.239 C331.63,280.832,280.832,331.63,218.391,331.63z"></path><path d="M120.622,218.383h17.423c0-21.407,8.364-41.58,23.544-56.804l-12.332-12.303 C130.793,167.787,120.622,192.33,120.622,218.383z"></path><path d="M210.89,182.1H225.9c3.681,0,7.15,1.434,9.751,4.035c2.606,2.611,4.042,6.072,4.042,9.759h17.421 c0-8.335-3.244-16.177-9.149-22.083c-5.618-5.606-12.987-8.805-20.861-9.102v-14.068h-17.421v14.068 c-7.88,0.298-15.249,3.5-20.856,9.102c-5.898,5.891-9.149,13.732-9.149,22.083c0,8.343,3.246,16.184,9.142,22.083 c5.891,5.888,13.729,9.137,22.072,9.137H225.9c3.679,0,7.142,1.436,9.761,4.055c2.596,2.593,4.029,6.049,4.029,9.728 c0,3.684-1.436,7.155-4.042,9.764c-2.598,2.601-6.062,4.035-9.751,4.035h-15.009c-3.694,0-7.155-1.434-9.751-4.035 c-2.604-2.609-4.042-6.075-4.042-9.764h-17.421c0,8.343,3.246,16.184,9.137,22.077c5.601,5.611,12.97,8.813,20.872,9.11v14.053 h17.421v-14.053c7.895-0.297,15.266-3.499,20.877-9.107c5.891-5.909,9.134-13.75,9.134-22.077c0-8.346-3.246-16.179-9.137-22.054 c-5.898-5.901-13.74-9.152-22.077-9.152H210.89c-3.686,0-7.15-1.434-9.751-4.035c-2.604-2.609-4.042-6.077-4.042-9.766 c0-3.689,1.434-7.153,4.04-9.754C203.743,183.534,207.209,182.1,210.89,182.1z"></path><path d="M500.311,443.871l-116.462-116.46l-22.05,22.05l-20.936-20.936c27.297-30.281,42.234-69.057,42.234-110.129 c0-43.994-17.134-85.353-48.241-116.46c-31.109-31.112-72.471-48.243-116.462-48.243c-43.996,0-85.358,17.131-116.462,48.243 c-31.112,31.107-48.246,72.466-48.246,116.46s17.134,85.355,48.246,116.462c31.104,31.109,72.466,48.236,116.462,48.236 c41.08,0,79.865-14.942,110.151-42.25l20.936,20.936l-22.069,22.069l116.457,116.462C451.405,507.848,461.427,512,472.09,512 s20.685-4.152,28.221-11.692c7.534-7.532,11.684-17.549,11.689-28.219C512,461.435,507.848,451.41,500.311,443.871z M218.394,365.673c-39.342,0-76.329-15.319-104.143-43.131c-27.82-27.82-43.141-64.812-43.141-104.146 c0-39.342,15.322-76.324,43.141-104.143s64.801-43.139,104.143-43.139c39.337,0,76.324,15.319,104.143,43.139 c27.82,27.82,43.139,64.801,43.139,104.143c0,39.337-15.322,76.329-43.139,104.146 C294.717,350.356,257.731,365.673,218.394,365.673z M487.99,487.992c-4.245,4.25-9.889,6.584-15.898,6.584 c-6.008,0-11.653-2.335-15.903-6.584L352.046,383.846l31.803-31.803L487.99,456.187c4.25,4.25,6.589,9.9,6.589,15.903 C494.577,478.103,492.239,483.75,487.99,487.992z"></path><rect x="59.391" y="66.286" transform="matrix(0.7072 0.707 -0.707 0.7072 74.979 -31.0596)" width="31.196" height="17.421"></rect><rect x="125.202" y="22.312" transform="matrix(0.3826 0.9239 -0.9239 0.3826 115.5896 -110.93)" width="31.188" height="17.423"></rect><rect x="209.679" y="0" width="17.421" height="31.199"></rect><rect x="287.286" y="15.453" transform="matrix(0.9239 0.3827 -0.3827 0.9239 34.4164 -110.912)" width="17.426" height="31.202"></rect><rect x="353.083" y="59.389" transform="matrix(0.7071 0.7071 -0.7071 0.7071 158.9925 -233.8622)" width="17.421" height="31.201"></rect><rect x="397.045" y="125.19" transform="matrix(0.3827 0.9239 -0.9239 0.3827 380.5524 -287.9567)" width="17.424" height="31.205"></rect><rect x="405.581" y="209.674" width="31.206" height="17.421"></rect><rect x="15.439" y="132.083" transform="matrix(0.9239 0.3827 -0.3827 0.9239 56.2441 -1.1597)" width="31.197" height="17.426"></rect><rect y="209.689" width="31.199" height="17.421"></rect><rect x="22.325" y="280.411" transform="matrix(-0.3827 -0.9239 0.9239 -0.3827 -230.5639 437.9712)" width="17.426" height="31.205"></rect><rect x="66.285" y="346.185" transform="matrix(-0.7071 -0.7071 0.7071 -0.7071 -127.7971 670.6387)" width="17.421" height="31.204"></rect><rect x="132.094" y="390.139" transform="matrix(-0.9239 -0.3826 0.3826 -0.9239 115.6623 834.4796)" width="17.426" height="31.201"></rect><rect x="209.679" y="405.581" width="17.421" height="31.204"></rect></g></g></g></svg>