<!-- icon666.com - MILLIONS vector ICONS FREE -->
<svg id="_x33_0" enable-background="new 0 0 64 64" viewBox="0 0 64 64" xmlns="http://www.w3.org/2000/svg" style="enable-background:new 0 0 64 64;" xml:space="preserve">
    <defs>
        <!-- Define gradient -->
        <linearGradient id="gradient" x1="100%" y1="100%" x2="100%" y2="0">
            <stop offset="0%" stop-color="white" stop-opacity="0.1"/>
            <stop offset="100%" stop-color="white" stop-opacity="1"/>
        </linearGradient>

        <!-- Define mask -->
        <mask id="mask" x="0" y="0" width="64" height="64">
            <rect x="0" y="0" width="64" height="64" fill="url(#gradient)"/>
        </mask>
    </defs>
    <g mask="url(#mask)" fill="white">
        <path d="m58.985 9c-2.197 0-3.985 1.788-3.985 3.985v.146c-1.158.363-2 1.447-2 2.724 0 1.087.604 2.065 1.578 2.553l.422.21v3.382c0 4.843-3.848 8.793-8.645 8.982.414-.576.645-1.26.645-1.982 0-.911-.355-1.769-1-2.414l-.585-.586c-.268-.268-.415-.622-.415-1s.147-.732.414-1l.586-.586c.645-.646 1-1.503 1-2.414s-.355-1.769-1-2.414l-.414-.414c-.373-.372-.586-.888-.586-1.414v-2.758c0-7.168-5.832-13-13-13s-13 5.832-13 13.001v2.757c0 .526-.213 1.042-.586 1.414l-.414.414c-.645.646-1 1.503-1 2.414s.355 1.769 1 2.414l.585.586c.268.268.415.622.415 1s-.147.732-.414 1l-.586.586c-.645.646-1 1.503-1 2.414 0 .722.231 1.406.645 1.982-4.797-.188-8.645-4.139-8.645-8.982v-3.382l.423-.211c.973-.487 1.577-1.466 1.577-2.553 0-1.276-.842-2.36-2-2.724v-.146c0-2.196-1.788-3.984-3.985-3.984-2.214 0-4.015 1.794-4.015 4v9.005c0 10.474 8.521 18.997 18.995 19h1.04c.026.279.066.558.127.832l.258 1.163h-.42c-1.103 0-2 .897-2 2v14c0 2.206 1.794 4 4 4h18c2.206 0 4-1.794 4-4v-14c0-1.103-.897-2-2-2h-.42l.259-1.163c.061-.274.1-.553.126-.832h1.04c10.474-.003 18.995-8.526 18.995-19v-9.005c0-2.206-1.801-4-4.015-4zm-39.571 19 .586-.586c.645-.646 1-1.503 1-2.414s-.355-1.769-1-2.414l-.585-.586c-.268-.268-.415-.622-.415-1s.147-.732.414-1l.414-.414c.745-.744 1.172-1.774 1.172-2.828v-2.757c0-6.066 4.935-11.001 11-11.001s11 4.935 11 11v2.758c0 1.054.427 2.084 1.172 2.828l.413.414c.268.268.415.622.415 1s-.147.732-.414 1l-.586.586c-.645.646-1 1.503-1 2.414s.355 1.769 1 2.414l.585.586c.268.268.415.622.415 1s-.147.732-.414 1l-1 1h-2.472c-2.069 0-3.916-1.308-4.652-3.194 2.706-1.554 4.538-4.467 4.538-7.806v-4c0-2.757-2.243-5-5-5h-3c-2.206 0-4-1.794-4-4h-2c0 .926.211 1.803.587 2.587l-1.342.503c-1.941.728-3.245 2.61-3.245 4.682v5.228c0 3.339 1.832 6.252 4.539 7.806-.737 1.886-2.584 3.194-4.653 3.194h-2.472l-1-1c-.267-.268-.414-.622-.414-1s.147-.732.414-1zm17.214 4.915c-.004.029-.015.056-.019.085h-9.218c-.004-.029-.015-.056-.019-.085l-.174-1.394c.957-.747 1.715-1.742 2.18-2.913.83.253 1.71.392 2.622.392s1.792-.139 2.622-.392c.465 1.171 1.223 2.166 2.18 2.913zm-.821 2.085c-.85 1.21-2.242 2-3.807 2s-2.957-.79-3.807-2zm-3.807-8c-3.86 0-7-3.141-7-7v-5.228c0-1.244.782-2.373 1.947-2.81l1.843-.691c1.084 1.069 2.571 1.729 4.21 1.729h3c1.654 0 3 1.346 3 3v4c0 3.859-3.14 7-7 7zm-29-4.995v-9.005c0-1.103.904-2 2.015-2 1.094 0 1.985.891 1.985 1.985v2.015h1.146c.471 0 .854.384.854.854 0 .325-.181.618-.472.764l-1.528.764v4.618c0 4.896 3.218 9.052 7.648 10.474l-1.162 5.228c-6.149-2.562-10.486-8.631-10.486-15.697zm38 38.995h-18c-1.103 0-2-.897-2-2h22c0 1.103-.897 2-2 2zm2-4h-22v-12h22zm1.005-17.995h-1.152c-.119-.579-.304-1.145-.568-1.673l-.39-.779-1.789.895.39.779c.331.66.505 1.4.505 2.139 0 .348-.039.697-.114 1.038l-.356 1.596h-17.062l-.354-1.597c-.076-.34-.115-.69-.115-1.038 0-.738.174-1.479.505-2.139l.39-.779-1.789-.895-.39.779c-.264.528-.449 1.094-.568 1.673h-1.152c-1.598 0-3.138-.238-4.605-.652l1.211-5.451c.459.059.923.099 1.398.099h4.886c.852 0 1.668-.155 2.427-.432l.074.595c.416 3.327 3.259 5.837 6.613 5.837s6.197-2.51 6.612-5.837l.074-.595c.759.277 1.576.432 2.428.432h4.886c.475 0 .939-.04 1.398-.099l1.211 5.451c-1.466.415-3.007.652-4.604.653zm16.995-17c0 7.066-4.337 13.135-10.487 15.697l-1.162-5.228c4.431-1.422 7.649-5.578 7.649-10.474v-4.618l-1.527-.764c-.292-.145-.473-.438-.473-.764 0-.47.383-.854.854-.854h1.146v-2.015c0-1.094.891-1.985 1.985-1.985 1.111 0 2.015.897 2.015 2z"/>
        <circle cx="28" cy="16" r="1"/>
        <circle cx="36" cy="16" r="1"/>
        <path d="m37 19h-10v1c0 2.757 2.243 5 5 5s5-2.243 5-5zm-5 4c-1.304 0-2.416-.836-2.829-2h5.657c-.412 1.164-1.524 2-2.828 2z"/>
        <path d="m15 51h-8c-1.103 0-2 .897-2 2h-.802c-1.763 0-3.198 1.435-3.198 3.198 0 1.519 1.081 2.837 2.571 3.136l1.741.348c.694 1.928 2.524 3.318 4.688 3.318h2c2.757 0 5-2.243 5-5v-5c0-1.103-.897-2-2-2zm-12 5.198c0-.661.538-1.198 1.198-1.198h.802v2.58l-1.036-.207c-.559-.112-.964-.606-.964-1.175zm12 1.802c0 1.654-1.346 3-3 3h-2c-1.654 0-3-1.346-3-3v-5h8z"/>
        <path d="m15 49c0-1.803-.647-2.774-1.168-3.555-.465-.697-.832-1.248-.832-2.445h-2c0 1.803.647 2.774 1.168 3.555.465.697.832 1.248.832 2.445z"/>
        <path d="m11 49c0-1.803-.647-2.774-1.168-3.555-.465-.697-.832-1.248-.832-2.445h-2c0 1.803.647 2.774 1.168 3.555.465.697.832 1.248.832 2.445z"/>
        <path d="m32 53c1.654 0 3-1.346 3-3s-1.346-3-3-3-3 1.346-3 3 1.346 3 3 3zm0-4c.551 0 1 .448 1 1s-.449 1-1 1-1-.448-1-1 .449-1 1-1z"/>
        <path d="m61 49h-12c-1.103 0-2 .897-2 2v10c0 1.103.897 2 2 2h12c1.103 0 2-.897 2-2v-10c0-1.103-.897-2-2-2zm0 4h-4v-2h4zm-8 0v-2h2v2zm8.001 2v2h-12.001v-2zm-10.001-4v2h-2v-2zm-2 10v-2h12.001v2z"/>
    </g>
</svg>