<!-- icon666.com - MILLIONS vector ICONS FREE -->
<svg version="1.1" id="Capa_1" xmlns="http://www.w3.org/2000/svg"
     x="0px" y="0px" viewBox="0 0 512 512"
     style="enable-background:new 0 0 512 512;" xml:space="preserve">
    <defs>
        <!-- Define gradient -->
        <linearGradient id="gradient" x1="0" y1="0" x2="100%" y2="100%">
          <stop offset="0%" stop-color="white" stop-opacity="0.1"/>
          <stop offset="100%" stop-color="white" stop-opacity="1"/>
        </linearGradient>

        <!-- Define mask -->
        <mask id="mask" x="0" y="0" width="512" height="512">
          <rect x="0" y="0" width="512" height="512" fill="url(#gradient)"/>
        </mask>
    </defs>
    <g><g><path mask="url(#mask)" fill="white" d="M445.655,258.344l-61.656-61.656V120c0-13.232-10.768-24-24-24h-32c-12.208,0-22.2,9.192-23.696,20.992l-50.648-50.648 c-3.128-3.128-8.184-3.128-11.312,0l-192,192c-3.128,3.128-3.128,8.184,0,11.312c3.128,3.128,8.184,3.128,11.312,0l18.344-18.344 V440c0,13.232,10.768,24,24,24h288c13.232,0,24-10.768,24-24V251.312l18.344,18.344c1.56,1.56,3.608,2.344,5.656,2.344 c2.048,0,4.096-0.784,5.656-2.344C448.783,266.528,448.783,261.472,445.655,258.344z M319.999,120c0-4.416,3.584-8,8-8h32 c4.416,0,8,3.584,8,8v60.688l-48-48V120z M247.999,83.312l58.336,58.336c0.008,0.008,0.016,0.016,0.024,0.024l63.976,63.976 c0.008,0.008,0.016,0.016,0.024,0.024L388.687,224H107.311L247.999,83.312z M335.999,448h-48V336h48V448z M399.999,440 c0,4.416-3.584,8-8,8h-40V328c0-4.424-3.576-8-8-8h-64c-4.424,0-8,3.576-8,8v120h-168c-4.408,0-8-3.584-8-8V248 c0-4.416,3.592-8,8-8h288c4.416,0,8,3.584,8,8V440z"></path></g></g>
    <g><g><path mask="url(#mask)" fill="white" d="M247.999,288h-128c-4.416,0-8,3.576-8,8v96c0,4.424,3.584,8,8,8h128c4.416,0,8-3.576,8-8v-96 C255.999,291.576,252.415,288,247.999,288z M239.999,384h-112v-80h112V384z"></path></g></g>
    <g><g><path mask="url(#mask)" fill="white" d="M87.999,96c-22.056,0-40,17.944-40,40c0,22.056,17.944,40,40,40c22.056,0,40-17.944,40-40 C127.999,113.944,110.055,96,87.999,96z M87.999,160c-13.232,0-24-10.768-24-24s10.768-24,24-24s24,10.768,24,24 S101.231,160,87.999,160z"></path></g></g>
    <g><g><path mask="url(#mask)" fill="white" d="M135.999,32c-13.232,0-24,10.768-24,24s10.768,24,24,24s24-10.768,24-24S149.231,32,135.999,32z M135.999,64 c-4.408,0-8-3.584-8-8s3.592-8,8-8s8,3.584,8,8S140.407,64,135.999,64z"></path></g></g>
    <g><g><path mask="url(#mask)" fill="white" d="M39.999,0c-13.232,0-24,10.768-24,24s10.768,24,24,24s24-10.768,24-24S53.231,0,39.999,0z M39.999,32 c-4.408,0-8-3.584-8-8s3.592-8,8-8s8,3.584,8,8S44.407,32,39.999,32z"></path></g></g>
</svg>