<!-- icon666.com - MILLIONS vector ICONS FREE -->
<svg viewBox="-1 0 512 512" xmlns="http://www.w3.org/2000/svg">
    <defs>
        <!-- Define gradient -->
        <linearGradient id="gradient" x1="0" y1="0" x2="100%" y2="100%">
          <stop offset="0%" stop-color="white" stop-opacity="0.1"/>
          <stop offset="100%" stop-color="white" stop-opacity="1"/>
        </linearGradient>

        <!-- Define mask -->
        <mask id="mask" x="0" y="0" width="512" height="512">
          <rect x="0" y="0" width="512" height="512" fill="url(#gradient)"/>
        </mask>
    </defs>
    <path mask="url(#mask)" fill="white" d="m314.433594 283.824219v-38.019531c0-35.359376-28.765625-64.121094-64.121094-64.121094h-93.925781c-4.199219 0-7.605469 3.402344-7.605469 7.601562 0 4.199219 3.40625 7.605469 7.605469 7.605469h93.925781c26.972656 0 48.914062 21.941406 48.914062 48.914063v38.832031c-15.578124 3.480469-27.261718 17.410156-27.261718 34.023437v47.527344c-23.230469-11.710938-68.015625-15.320312-98-15.320312s-74.769532 3.609374-97.996094 15.320312v-47.527344c0-16.617187-11.6875-30.546875-27.265625-34.027344v-38.828124c0-26.972657 21.941406-48.914063 48.914063-48.914063h28.351562c4.199219 0 7.605469-3.40625 7.605469-7.605469 0-4.199218-3.40625-7.601562-7.605469-7.601562h-28.351562c-35.359376 0-64.125 28.761718-64.125 64.121094v38.019531c-18.589844.726562-33.492188 16.070312-33.492188 34.835937v159.464844c0 4.199219 3.40625 7.601562 7.605469 7.601562h24.40625v6.253907c0 10.546875 8.582031 19.128906 19.128906 19.128906h50.375c10.546875 0 19.125-8.582031 19.125-19.128906v-6.253907h106.644531v6.253907c0 10.546875 8.582032 19.128906 19.128906 19.128906h50.375c10.546876 0 19.128907-8.582031 19.128907-19.128906v-6.253907h24.40625c4.203125 0 7.605469-3.402343 7.605469-7.601562v-159.464844c0-18.765625-14.902344-34.109375-33.496094-34.835937zm-238.46875 186.695312v-78.367187h195.996094v78.367187zm98-104.445312c26.058594 0 50.878906 2.386719 69.890625 6.714843 5.976562 1.363282 10.769531 2.78125 14.59375 4.15625h-168.964844c3.820313-1.375 8.613281-2.792968 14.589844-4.15625 19.011719-4.328124 43.832031-6.714843 69.890625-6.714843zm-158.757813-47.414063c0-10.839844 8.824219-19.664062 19.664063-19.664062h6.15625c.023437 0 .046875.003906.070312.003906h.035156c10.824219.019531 19.625 8.828125 19.625 19.660156v151.859375h-45.550781zm90.226563 173.320313c0 2.160156-1.757813 3.917969-3.917969 3.917969h-50.375c-2.160156 0-3.921875-1.757813-3.921875-3.917969v-6.253907h58.214844zm195.277344 0c0 2.160156-1.757813 3.917969-3.921876 3.917969h-50.375c-2.160156 0-3.917968-1.757813-3.917968-3.917969v-6.253907h58.214844zm32.011718-21.460938h-45.550781v-151.859375c0-10.828125 8.800781-19.640625 19.625-19.660156h.03125.070313 6.160156c10.84375 0 19.664062 8.820312 19.664062 19.660156zm0 0"></path>
    <path mask="url(#mask)" fill="white" d="m510.695312 168.5-36.878906-162.578125c-.785156-3.464844-3.863281-5.921875-7.414062-5.921875h-107.6875c-3.550782 0-6.628906 2.457031-7.414063 5.921875l-36.878906 162.578125c-.511719 2.253906.03125 4.621094 1.472656 6.425781 1.445313 1.808594 3.632813 2.859375 5.941407 2.859375h41.199218v66.386719c0 4.199219 3.40625 7.601563 7.605469 7.601563s7.605469-3.402344 7.605469-7.601563v-66.386719h12.242187v288.84375h-7.71875c-14.761719 0-26.773437 12.011719-26.773437 26.773438v10.992187c0 4.199219 3.40625 7.605469 7.605468 7.605469h97.914063c4.199219 0 7.601563-3.40625 7.601563-7.605469v-10.992187c0-14.765625-12.007813-26.773438-26.769532-26.773438h-7.722656v-53.339844c0-4.199218-3.402344-7.605468-7.605469-7.605468-4.199219 0-7.601562 3.40625-7.601562 7.605468v53.339844h-13.71875v-288.84375h13.71875v205.085938c0 4.199218 3.402343 7.601562 7.601562 7.601562 4.203125 0 7.605469-3.402344 7.605469-7.601562v-205.085938h68.652344c2.3125 0 4.5-1.050781 5.941406-2.859375 1.445312-1.804687 1.988281-4.171875 1.476562-6.425781zm-68.347656 313.335938c6.375 0 11.5625 5.1875 11.5625 11.566406v3.390625h-82.707031v-3.390625c0-6.378906 5.191406-11.566406 11.566406-11.566406zm-77.558594-466.628907h15.882813l-14.582031 147.371094h-34.730469zm16.582032 147.371094 14.585937-147.371094h33.203125l14.582032 147.371094zm77.65625 0-14.585938-147.371094h15.886719l33.429687 147.371094zm0 0"></path>
    <path mask="url(#mask)" fill="white" d="m32.953125 148.503906h174.101563c4.199218 0 7.601562-3.40625 7.601562-7.605468v-128.226563c0-4.199219-3.402344-7.601563-7.601562-7.601563h-174.101563c-4.199219 0-7.605469 3.402344-7.605469 7.601563v128.226563c0 4.199218 3.40625 7.605468 7.605469 7.605468zm33.5625-30.417968h106.972656l15.207031 15.210937h-137.386718zm4.457031-15.207032v-52.1875h98.058594v52.1875zm113.269532 4.457032v-61.097657l15.207031-15.207031v91.511719zm-10.753907-71.851563h-106.972656l-15.207031-15.207031h137.386718zm-117.722656 10.753906v61.097657l-15.210937 15.207031v-91.511719zm0 0"></path>
</svg>